<?xml version="1.0" encoding="utf-8" ?>
<svg xmlns="http://www.w3.org/2000/svg" xmlns:xlink="http://www.w3.org/1999/xlink" width="326" height="407">
	<path fill="#F8961E" transform="scale(0.509426 0.509426)" d="M311.047 152.317C314.161 153.125 327.06 154.809 328.61 155.918L328.604 171.311C326.097 168.97 323.139 167.226 320.269 165.387L311.865 169.091C310.781 163.624 311.075 157.863 311.047 152.317Z"/>
	<path fill="#F94144" transform="scale(0.509426 0.509426)" d="M311.165 152.317L311.03 79.8778C311.061 63.0163 312.39 64.976 327.076 64.984L415.695 65.0926C419.012 65.107 421.495 64.9787 424.025 67.4766C433.661 76.9898 418.448 88.1598 412.208 94.5128L400.343 106.976C399.803 107.581 397.914 109.374 397.829 110.088C397.655 111.554 425.007 139.936 426.576 145.968C427.406 149.161 426.157 152.066 423.932 154.324L423.639 154.629C420.966 157.315 413.274 156.086 409.822 156.092L328.61 156.016C327.06 154.809 314.161 153.125 311.165 152.317Z"/>
	<path fill="#F8961E" transform="scale(0.509426 0.509426)" d="M524.79 589.336L551.061 589.487C558.626 589.483 564.808 588.666 568.132 597.363C569.091 599.874 568.753 629.307 568.429 633.624C567.672 643.688 556.655 642.711 550.027 642.72L82.0555 642.743C71.8219 642.694 70.7856 634.824 70.778 626.246L70.7872 613.056C70.8039 604.495 68.6379 594.202 78.5322 590.114L78.9292 589.943C81.0568 589.1 84.4136 589.492 86.7182 589.498L102.949 589.567L234.018 589.698L263.672 590.226C267.139 590.217 270.823 590.442 274.262 590.036L364.873 589.636L405.076 590.074L524.79 589.336Z"/>
	<path fill="#43AA8B" transform="scale(0.509426 0.509426)" d="M311.865 169.091L320.269 165.387C323.139 167.226 326.097 168.97 328.593 171.311C329.724 173.457 331.572 175.112 333.242 176.843L485.971 330.59C488.965 333.561 493.466 337.015 495.524 340.62C492.587 340.827 489.122 340.3 486.116 340.253L376.945 340.446C371.247 340.738 365.584 341.402 359.867 340.869L359.623 340.682C349.9 360.45 323.105 372.745 302.135 364.086C289.639 358.927 281.599 349.51 276.551 337.184C275.12 338.33 273.026 338.263 271.355 338.337L150.429 338.793C148.246 339.021 145.795 339.829 143.808 338.603L300.576 181.345C304.221 177.65 309.269 173.531 311.865 169.091Z"/>
	<path fill="#F3722C" transform="scale(0.509426 0.509426)" d="M276.551 337.184C266.379 305.388 291.506 278.531 323.505 279.955C350.671 283.123 372.858 314.661 359.867 340.642L359.623 340.682C349.9 360.45 323.105 372.745 302.135 364.086C289.639 358.927 281.599 349.51 276.551 337.184Z"/>
	<path fill="#F9C74F" transform="scale(0.509426 0.509426)" d="M323.505 279.938C350.671 283.123 372.858 314.661 359.867 340.642L359.623 340.682C358.218 339.513 354.987 339.414 353.156 338.96C350.18 338.222 346.428 335.454 343.435 335.499L343.451 334.184C337.773 327.163 319.821 329.713 321.693 321.889C322.244 319.583 337.508 321.909 340.609 320.052C341.187 318.463 340.989 316.601 340.993 314.922L340.982 305.738C338.807 304.761 335.933 304.767 333.565 304.58L318.01 303.644C318.535 300.226 320.262 296.991 321.528 293.831C323.23 289.581 321.484 290.59 321.141 286.655C320.997 285.006 323.23 282.039 323.505 279.938Z"/>
	<path fill="#F8961E" transform="scale(0.509426 0.509426)" d="M276.551 337.184C266.379 305.388 291.506 278.531 323.505 279.955C323.23 282.039 320.997 285.006 321.141 286.655C321.484 290.59 323.23 289.581 321.528 293.831C320.262 296.991 318.535 300.226 318.01 303.611L314.266 303.125L315.353 301.367C314.527 300.371 312.184 300.059 310.909 299.966C292.378 298.616 286.193 331.688 300.527 346.288C312.27 358.248 334.969 353.734 341.916 338.764C342.363 337.799 342.789 336.281 343.435 335.499C346.428 335.454 350.18 338.222 353.156 338.96C354.987 339.414 358.218 339.513 359.623 340.682C349.9 360.45 323.105 372.745 302.135 364.086C289.639 358.927 281.599 349.51 276.551 337.184Z"/>
	<path fill="#F9C74F" transform="scale(0.509426 0.509426)" d="M276.551 337.38C281.599 349.51 289.639 358.927 302.135 364.086C323.105 372.745 349.9 360.45 359.623 340.682L359.867 340.642C365.584 341.402 371.247 340.738 376.945 340.446L486.116 340.253C489.122 340.3 492.587 340.827 495.524 340.2L496.061 340.769C504.021 341.63 512.573 341.027 520.6 341.053C538.063 341.109 537.747 347.976 547.201 361.09C556.629 374.167 575.464 392.763 544.159 392.821L524.376 392.825L524.448 589.177L405.076 589.58L364.873 590.179L274.262 589.579C270.823 590.442 267.139 590.217 263.672 590.226L234.018 589.609L102.949 589.563L115.098 589.554L115.115 412.848C115.118 406.303 114.686 399.463 115.565 392.98L98.4617 392.804C80.3759 392.716 70.9741 388.172 83.433 371.835L99.3419 350.193C101.452 347.291 103.807 343.974 106.774 341.904L107.253 341.575C109.482 340.017 113.336 340.312 115.988 340.296L132.632 340.285C136.29 340.286 140.375 341.057 143.548 338.797L143.808 338.603C145.795 339.829 148.246 339.021 150.429 338.793L271.355 338.337C273.026 338.263 275.12 338.33 276.551 337.38Z"/>
	<path fill="#43AA8B" transform="scale(0.509426 0.509426)" d="M434.693 443.794L476.451 444.441C483.879 444.447 503.537 441.052 506.059 451.092C507.157 455.465 506.42 461.716 506.428 466.256L506.446 526.007C506.439 534.19 508.848 546.821 497.876 548.837C492.291 549.012 486.576 549.287 480.977 549.297L438.881 549.345C425.009 549.372 425.507 541.79 425.499 529.954L425.503 473.164C425.513 461.783 422.036 448.088 434.693 443.794Z"/>
	<path fill="#43AA8B" transform="scale(0.509426 0.509426)" d="M139.57 444.187L202.731 444.363C214.852 444.406 214.539 451.14 214.548 460.404L214.631 539.358C214.465 544.388 211.205 547.292 206.706 549.14C201.502 549.865 195.64 549.332 190.369 549.326L143.971 549.405C138.51 549.461 135.16 548.63 132.907 542.856L132.731 542.383C131.294 538.7 132.262 533.621 132.275 529.717L132.374 452.539C132.494 447.742 135.078 445.832 139.57 444.187Z"/>
	<path fill="#577590" transform="scale(0.509426 0.509426)" d="M276.551 337.38C281.599 349.51 289.639 358.927 302.135 364.086C323.105 372.745 349.9 360.45 359.623 340.682L359.867 340.642C365.584 341.402 371.247 340.738 376.945 340.446L486.116 340.253C489.122 340.3 492.587 340.827 495.524 340.2L496.061 340.769C504.021 341.63 512.573 341.027 520.6 341.053C538.063 341.109 537.747 347.976 547.201 361.09C556.629 374.167 575.464 392.763 544.159 392.821L524.376 392.825L115.74 392.83L98.4617 392.804C80.3759 392.716 70.9741 388.172 83.433 371.835L99.3419 350.193C101.452 347.291 103.807 343.974 106.774 341.904L107.253 341.575C109.482 340.017 113.336 340.312 115.988 340.296L132.632 340.285C136.29 340.286 140.375 341.057 143.548 338.797L143.808 338.603C145.795 339.829 148.246 339.021 150.429 338.793L271.355 338.337C273.026 338.263 275.12 338.33 276.551 337.38Z"/>
	<path fill="#F94144" transform="scale(0.509426 0.509426)" d="M234.018 589.609C232.975 576.799 233.579 563.472 233.566 550.475L233.549 522.356C233.549 515.945 233.149 509.16 233.754 502.784C238.235 455.498 284.377 421.997 330.851 427.6C374.538 432.867 404.852 468.959 405.001 512.149L405.011 589.93L364.873 590.179L274.262 589.579C270.823 590.442 267.139 590.217 263.672 590.226L234.018 589.609Z"/>
	<path fill="#F9C74F" transform="scale(0.509426 0.509426)" d="M274.262 589.579L274.364 511.377C274.385 497.693 276.641 490.405 286.908 480.169C311.296 455.852 354.688 465.543 362.77 498.72C364.471 505.702 364.492 512.965 364.518 520.101L364.56 590.032L274.262 589.579Z"/>
</svg>
