<?xml version="1.0" encoding="utf-8" ?>
<svg xmlns="http://www.w3.org/2000/svg" xmlns:xlink="http://www.w3.org/1999/xlink" width="326" height="407">
	<path transform="scale(0.636782 0.636782)" d="M265.942 81.6308L244.714 81.7276C143.355 87.0339 65.1884 180.209 77.2943 280.809C80.7449 309.484 92.5019 342.44 110.317 365.527C111.554 367.13 114.592 372.06 115.847 373.011L116.053 373.159C111.831 373.431 107.505 373.248 103.273 373.25L64.0836 373.31C61.9502 373.314 58.3384 374.047 56.4602 372.971C53.524 368.982 51.3423 363.972 49.1715 359.536C36.8486 334.355 28.7931 302.592 27.3668 274.469L27.2124 257.996C27.35 182.904 65.9698 112.971 128.026 70.8644C162.678 47.3521 204.226 34.0836 245.973 31.9729C301.049 29.1926 361.763 48.8718 403.919 85.1395C449.737 124.558 480.119 181.17 484.548 241.807C487.446 281.48 480.314 323.172 463.069 358.98L458.483 368.368C457.749 369.976 457.426 371.89 456.262 373.238L396.196 373.005C397.151 372.136 397.369 371.081 398.082 370.084L405.873 359.101C411.453 350.611 416.816 341.731 421.019 332.468C461.612 243.004 418.516 137.683 330.764 97.3995C309.846 87.797 288.928 82.9438 265.942 81.6308Z"/>
	<path transform="scale(0.636782 0.636782)" d="M261.097 170.991C185.519 167.083 135.75 258.985 188.421 313.856C198.953 324.828 214.215 332.118 219.093 347.354C221.747 355.643 221.518 366.458 217.317 374.25C215.151 378.266 209.374 376.681 205.537 376.679C201.69 376.677 188.571 377.795 185.79 375.902L175.515 369.42C107.885 324.285 99.221 225.536 154.219 166.623C180.043 138.96 214.425 123.057 252.226 121.705L266.194 121.798C272.123 122.05 278.262 123.221 284.065 124.449C357.963 140.095 408.251 214.245 390.862 288.974C382.014 326.998 363.91 350.792 332.277 372.267C325.272 377.023 325.716 376.687 317.53 376.659C313.997 376.647 297.808 377.858 295.949 375.414C285.899 362.202 292.372 341.683 303.365 331.271C306.834 327.986 310.824 325.231 314.532 322.222C375.26 272.949 340.663 178.346 261.097 170.991Z"/>
	<path transform="scale(0.636782 0.636782)" d="M257.432 604.672C245.501 604.4 234.457 597.371 232.721 584.936C232.12 580.629 232.686 575.539 232.689 571.136L232.743 398.736C232.742 393.316 233.749 383.463 231.634 379.062C244.824 370.475 254.949 355.574 253.027 339.207C251.095 322.761 242.53 306.573 230.002 295.686C225.924 292.143 221.257 289.379 217.044 286.012C198.286 271.02 195.026 246.254 215.928 231.277C225.236 224.607 222.269 227.955 229.779 218.968C236.118 211.382 245.168 208.244 254.732 207.316L259.175 207.282C269.075 207.979 277.12 212.722 283.618 220.1C288.635 225.795 287.022 225.411 293.826 229.563C317.153 243.799 313.807 270.173 294.628 286.064L283.852 294.39C259.828 314.62 247.972 347.614 272.173 372.603C281.903 382.648 279.531 374.521 279.518 390.317L279.528 578.672C279.446 592.955 272.055 602.643 257.432 604.672Z"/>
</svg>
